<svg width="15" height="28" viewBox="0 0 15 28" fill="none" xmlns="http://www.w3.org/2000/svg">
<path d="M12.2721 14L0.949429 25.636C0.856207 25.7298 0.782508 25.8411 0.732596 25.9636C0.682683 26.086 0.657548 26.2172 0.658647 26.3494C0.659745 26.4816 0.687055 26.6123 0.738995 26.7339C0.790934 26.8555 0.866472 26.9656 0.961239 27.0578C1.056 27.15 1.16812 27.2225 1.29109 27.2711C1.41406 27.3197 1.54545 27.3434 1.67765 27.3409C1.80985 27.3384 1.94024 27.3097 2.06127 27.2564C2.1823 27.2032 2.29157 27.1265 2.38276 27.0307L14.3828 14.6974C14.5644 14.5107 14.666 14.2605 14.666 14C14.666 13.7396 14.5644 13.4894 14.3828 13.3027L2.38276 0.969373C2.29157 0.873624 2.1823 0.79691 2.06127 0.743668C1.94024 0.690427 1.80985 0.661717 1.67765 0.659201C1.54545 0.656684 1.41406 0.680409 1.29109 0.729005C1.16812 0.7776 1.05601 0.8501 0.961241 0.942309C0.866475 1.03452 0.790936 1.14461 0.738997 1.26621C0.687057 1.3878 0.659747 1.51849 0.658649 1.65071C0.65755 1.78293 0.682685 1.91406 0.732598 2.0365C0.78251 2.15894 0.856209 2.27027 0.949431 2.36404L12.2721 14Z" fill="#06DC22"/>
</svg>
