<svg width="15" height="28" viewBox="0 0 27 52" fill="none" xmlns="http://www.w3.org/2000/svg">
<path d="M4.74006 26L25.9701 4.18251C26.1449 4.00669 26.283 3.79795 26.3766 3.56837C26.4702 3.33879 26.5173 3.09293 26.5153 2.84502C26.5132 2.59711 26.462 2.35206 26.3646 2.12407C26.2672 1.89608 26.1256 1.68966 25.9479 1.51677C25.7702 1.34387 25.56 1.20794 25.3295 1.11682C25.0989 1.0257 24.8525 0.981216 24.6046 0.985935C24.3568 0.990655 24.1123 1.04449 23.8854 1.14431C23.6584 1.24414 23.4535 1.38798 23.2826 1.56751L0.782564 24.6925C0.442009 25.0425 0.251465 25.5116 0.251465 26C0.251465 26.4884 0.442009 26.9575 0.782564 27.3075L23.2826 50.4325C23.4535 50.612 23.6584 50.7559 23.8854 50.8557C24.1123 50.9555 24.3568 51.0094 24.6046 51.0141C24.8525 51.0188 25.0989 50.9743 25.3295 50.8832C25.56 50.7921 25.7702 50.6562 25.9479 50.4833C26.1256 50.3104 26.2672 50.104 26.3646 49.876C26.462 49.648 26.5132 49.4029 26.5153 49.155C26.5173 48.9071 26.4702 48.6612 26.3766 48.4317C26.283 48.2021 26.1449 47.9933 25.9701 47.8175L4.74006 26Z" fill="#06DC22"/>
</svg>
