<svg width="22" height="22" viewBox="0 0 22 22" fill="none" xmlns="http://www.w3.org/2000/svg">
<path d="M1.5 11.5237L2.5 11.5237L1.5 11.5237ZM1.5 19.0439H0.5H1.5ZM19.0385 20.5V19.5V20.5ZM2.96154 20.5V21.5H2.96154L2.96154 20.5ZM20.5 11.5238H19.5H20.5ZM20.5 19.0439H21.5H20.5ZM19.7266 9.55042L18.9925 10.2294L19.7266 9.55042ZM13.1497 2.43887L12.4155 3.11785L13.1497 2.43887ZM8.85031 2.43887L9.58447 3.11784L8.85031 2.43887ZM2.27339 9.55039L1.53922 8.87141H1.53922L2.27339 9.55039ZM8.07692 13.2194H9.07692H8.07692ZM8.07692 19.7719H7.07692H8.07692ZM13.1923 20.5V19.5V20.5ZM8.80769 20.5V21.5V20.5ZM13.9231 13.2195L14.9231 13.2195V13.2195H13.9231ZM13.9231 19.7719H12.9231H13.9231ZM13.1923 12.4914L13.1923 13.4914L13.1923 12.4914ZM8.80769 12.4914L8.80769 13.4914H8.80769L8.80769 12.4914ZM0.5 11.5237L0.5 19.0439H2.5L2.5 11.5237L0.5 11.5237ZM19.0385 19.5L2.96154 19.5L2.96154 21.5L19.0385 21.5V19.5ZM19.5 11.5238V19.0439H21.5V11.5238H19.5ZM20.4608 8.87145L13.8839 1.7599L12.4155 3.11785L18.9925 10.2294L20.4608 8.87145ZM8.11614 1.75989L1.53922 8.87141L3.00755 10.2294L9.58447 3.11784L8.11614 1.75989ZM13.8839 1.7599C12.3303 0.080038 9.66972 0.0800297 8.11614 1.75989L9.58447 3.11784C10.3463 2.29405 11.6537 2.29405 12.4155 3.11785L13.8839 1.7599ZM21.5 11.5238C21.5 10.5404 21.1287 9.59363 20.4608 8.87145L18.9925 10.2294C19.3192 10.5827 19.5 11.0448 19.5 11.5238H21.5ZM2.5 11.5237C2.5 11.0447 2.68082 10.5826 3.00755 10.2294L1.53922 8.87141C0.871333 9.59359 0.5 10.5404 0.5 11.5237L2.5 11.5237ZM0.5 19.0439C0.5 20.4039 1.60558 21.5 2.96154 21.5L2.96154 19.5C2.70313 19.5 2.5 19.2923 2.5 19.0439H0.5ZM19.0385 21.5C20.3944 21.5 21.5 20.4039 21.5 19.0439H19.5C19.5 19.2923 19.2969 19.5 19.0385 19.5V21.5ZM7.07692 13.2194L7.07692 19.7719H9.07692L9.07692 13.2194H7.07692ZM13.1923 19.5H8.80769V21.5H13.1923V19.5ZM12.9231 13.2195L12.9231 19.7719H14.9231L14.9231 13.2195L12.9231 13.2195ZM13.1923 11.4914L8.8077 11.4914L8.80769 13.4914L13.1923 13.4914L13.1923 11.4914ZM14.9231 13.2195C14.9231 12.2616 14.1447 11.4914 13.1923 11.4914L13.1923 13.4914C13.0471 13.4914 12.9231 13.3732 12.9231 13.2195H14.9231ZM9.07692 13.2194C9.07692 13.3731 8.95288 13.4914 8.80769 13.4914L8.8077 11.4914C7.85533 11.4914 7.07692 12.2616 7.07692 13.2194H9.07692ZM7.07692 19.7719C7.07692 20.7298 7.85533 21.5 8.80769 21.5V19.5C8.95287 19.5 9.07692 19.6182 9.07692 19.7719H7.07692ZM13.1923 21.5C14.1447 21.5 14.9231 20.7298 14.9231 19.7719H12.9231C12.9231 19.6182 13.0471 19.5 13.1923 19.5V21.5Z" fill="#06DC22"/>
</svg>
